<?xml version="1.0" encoding="UTF-8"?><svg xmlns="http://www.w3.org/2000/svg" xmlns:xlink="http://www.w3.org/1999/xlink" fill-opacity="1" color-rendering="auto" color-interpolation="auto" stroke="black" text-rendering="auto" stroke-linecap="square" width="1952" stroke-miterlimit="10" stroke-opacity="1" shape-rendering="auto" fill="black" stroke-dasharray="none" font-weight="normal" stroke-width="1" height="940" font-family="'Dialog'" font-style="normal" stroke-linejoin="miter" font-size="12" stroke-dashoffset="0" image-rendering="auto">
  <!--Generated by ySVG 2.5-->
  <defs id="genericDefs"/>
  <g>
    <defs id="defs1">
      <linearGradient x1="-130" gradientUnits="userSpaceOnUse" x2="-50" y1="160" y2="200" id="linearGradient1" spreadMethod="reflect">
        <stop stop-opacity="1" stop-color="white" offset="0%"/>
        <stop stop-opacity="1" stop-color="white" offset="100%"/>
      </linearGradient>
      <linearGradient x1="-20" gradientUnits="userSpaceOnUse" x2="60" y1="160" y2="200" id="linearGradient2" spreadMethod="reflect">
        <stop stop-opacity="1" stop-color="white" offset="0%"/>
        <stop stop-opacity="1" stop-color="white" offset="100%"/>
      </linearGradient>
      <linearGradient x1="-50" gradientUnits="userSpaceOnUse" x2="30" y1="110" y2="150" id="linearGradient3" spreadMethod="reflect">
        <stop stop-opacity="1" stop-color="white" offset="0%"/>
        <stop stop-opacity="1" stop-color="white" offset="100%"/>
      </linearGradient>
      <linearGradient x1="143.5938" gradientUnits="userSpaceOnUse" x2="223.5938" y1="105" y2="145" id="linearGradient4" spreadMethod="reflect">
        <stop stop-opacity="1" stop-color="white" offset="0%"/>
        <stop stop-opacity="1" stop-color="white" offset="100%"/>
      </linearGradient>
      <linearGradient x1="458.5938" gradientUnits="userSpaceOnUse" x2="538.5938" y1="105" y2="145" id="linearGradient5" spreadMethod="reflect">
        <stop stop-opacity="1" stop-color="white" offset="0%"/>
        <stop stop-opacity="1" stop-color="white" offset="100%"/>
      </linearGradient>
      <linearGradient x1="458.5938" gradientUnits="userSpaceOnUse" x2="538.5938" y1="185" y2="225" id="linearGradient6" spreadMethod="reflect">
        <stop stop-opacity="1" stop-color="white" offset="0%"/>
        <stop stop-opacity="1" stop-color="white" offset="100%"/>
      </linearGradient>
      <linearGradient x1="378.5938" gradientUnits="userSpaceOnUse" x2="458.5938" y1="145" y2="185" id="linearGradient7" spreadMethod="reflect">
        <stop stop-opacity="1" stop-color="white" offset="0%"/>
        <stop stop-opacity="1" stop-color="white" offset="100%"/>
      </linearGradient>
      <linearGradient x1="238.5938" gradientUnits="userSpaceOnUse" x2="348.5938" y1="145" y2="185" id="linearGradient8" spreadMethod="reflect">
        <stop stop-opacity="1" stop-color="white" offset="0%"/>
        <stop stop-opacity="1" stop-color="white" offset="100%"/>
      </linearGradient>
      <linearGradient x1="740" gradientUnits="userSpaceOnUse" x2="820" y1="160" y2="200" id="linearGradient9" spreadMethod="reflect">
        <stop stop-opacity="1" stop-color="white" offset="0%"/>
        <stop stop-opacity="1" stop-color="white" offset="100%"/>
      </linearGradient>
      <linearGradient x1="630" gradientUnits="userSpaceOnUse" x2="710" y1="160" y2="200" id="linearGradient10" spreadMethod="reflect">
        <stop stop-opacity="1" stop-color="white" offset="0%"/>
        <stop stop-opacity="1" stop-color="white" offset="100%"/>
      </linearGradient>
      <linearGradient x1="666.0377" gradientUnits="userSpaceOnUse" x2="746.0377" y1="110" y2="150" id="linearGradient11" spreadMethod="reflect">
        <stop stop-opacity="1" stop-color="white" offset="0%"/>
        <stop stop-opacity="1" stop-color="white" offset="100%"/>
      </linearGradient>
      <linearGradient x1="257.1875" gradientUnits="userSpaceOnUse" x2="402.8125" y1="235" y2="275" id="linearGradient12" spreadMethod="reflect">
        <stop stop-opacity="1" stop-color="white" offset="0%"/>
        <stop stop-opacity="1" stop-color="white" offset="100%"/>
      </linearGradient>
      <linearGradient x1="210" gradientUnits="userSpaceOnUse" x2="290" y1="275" y2="315" id="linearGradient13" spreadMethod="reflect">
        <stop stop-opacity="1" stop-color="white" offset="0%"/>
        <stop stop-opacity="1" stop-color="white" offset="100%"/>
      </linearGradient>
      <linearGradient x1="363.3543" gradientUnits="userSpaceOnUse" x2="443.3543" y1="275" y2="315" id="linearGradient14" spreadMethod="reflect">
        <stop stop-opacity="1" stop-color="white" offset="0%"/>
        <stop stop-opacity="1" stop-color="white" offset="100%"/>
      </linearGradient>
      <linearGradient x1="210" gradientUnits="userSpaceOnUse" x2="290" y1="365" y2="405" id="linearGradient15" spreadMethod="reflect">
        <stop stop-opacity="1" stop-color="white" offset="0%"/>
        <stop stop-opacity="1" stop-color="white" offset="100%"/>
      </linearGradient>
      <linearGradient x1="370" gradientUnits="userSpaceOnUse" x2="450" y1="365" y2="405" id="linearGradient16" spreadMethod="reflect">
        <stop stop-opacity="1" stop-color="white" offset="0%"/>
        <stop stop-opacity="1" stop-color="white" offset="100%"/>
      </linearGradient>
      <linearGradient x1="665" gradientUnits="userSpaceOnUse" x2="745" y1="280" y2="320" id="linearGradient17" spreadMethod="reflect">
        <stop stop-opacity="1" stop-color="white" offset="0%"/>
        <stop stop-opacity="1" stop-color="white" offset="100%"/>
      </linearGradient>
      <linearGradient x1="290" gradientUnits="userSpaceOnUse" x2="370" y1="320" y2="360" id="linearGradient18" spreadMethod="reflect">
        <stop stop-opacity="1" stop-color="white" offset="0%"/>
        <stop stop-opacity="1" stop-color="white" offset="100%"/>
      </linearGradient>
      <linearGradient x1="-135" gradientUnits="userSpaceOnUse" x2="-45" y1="312" y2="368" id="linearGradient19" spreadMethod="reflect">
        <stop stop-opacity="1" stop-color="white" offset="0%"/>
        <stop stop-opacity="1" stop-color="white" offset="100%"/>
      </linearGradient>
      <linearGradient x1="735" gradientUnits="userSpaceOnUse" x2="825" y1="312" y2="368" id="linearGradient20" spreadMethod="reflect">
        <stop stop-opacity="1" stop-color="white" offset="0%"/>
        <stop stop-opacity="1" stop-color="white" offset="100%"/>
      </linearGradient>
      <linearGradient x1="143.5938" gradientUnits="userSpaceOnUse" x2="223.5938" y1="185" y2="225" id="linearGradient21" spreadMethod="reflect">
        <stop stop-opacity="1" stop-color="white" offset="0%"/>
        <stop stop-opacity="1" stop-color="white" offset="100%"/>
      </linearGradient>
      <linearGradient x1="-50" gradientUnits="userSpaceOnUse" x2="30" y1="209.3082" y2="249.3082" id="linearGradient22" spreadMethod="reflect">
        <stop stop-opacity="1" stop-color="white" offset="0%"/>
        <stop stop-opacity="1" stop-color="white" offset="100%"/>
      </linearGradient>
      <linearGradient x1="666.0377" gradientUnits="userSpaceOnUse" x2="746.0377" y1="209.3082" y2="249.3082" id="linearGradient23" spreadMethod="reflect">
        <stop stop-opacity="1" stop-color="white" offset="0%"/>
        <stop stop-opacity="1" stop-color="white" offset="100%"/>
      </linearGradient>
      <linearGradient x1="290" gradientUnits="userSpaceOnUse" x2="370" y1="390" y2="430" id="linearGradient24" spreadMethod="reflect">
        <stop stop-opacity="1" stop-color="white" offset="0%"/>
        <stop stop-opacity="1" stop-color="white" offset="100%"/>
      </linearGradient>
      <linearGradient x1="-55" gradientUnits="userSpaceOnUse" x2="25" y1="510.9644" y2="550.9644" id="linearGradient25" spreadMethod="reflect">
        <stop stop-opacity="1" stop-color="white" offset="0%"/>
        <stop stop-opacity="1" stop-color="white" offset="100%"/>
      </linearGradient>
      <linearGradient x1="665" gradientUnits="userSpaceOnUse" x2="745" y1="510.9644" y2="550.9644" id="linearGradient26" spreadMethod="reflect">
        <stop stop-opacity="1" stop-color="white" offset="0%"/>
        <stop stop-opacity="1" stop-color="white" offset="100%"/>
      </linearGradient>
      <linearGradient x1="-135" gradientUnits="userSpaceOnUse" x2="-55" y1="450.9644" y2="490.9644" id="linearGradient27" spreadMethod="reflect">
        <stop stop-opacity="1" stop-color="white" offset="0%"/>
        <stop stop-opacity="1" stop-color="white" offset="100%"/>
      </linearGradient>
      <linearGradient x1="745" gradientUnits="userSpaceOnUse" x2="825" y1="450.9644" y2="490.9644" id="linearGradient28" spreadMethod="reflect">
        <stop stop-opacity="1" stop-color="white" offset="0%"/>
        <stop stop-opacity="1" stop-color="white" offset="100%"/>
      </linearGradient>
      <linearGradient x1="585" gradientUnits="userSpaceOnUse" x2="665" y1="450.9644" y2="490.9644" id="linearGradient29" spreadMethod="reflect">
        <stop stop-opacity="1" stop-color="white" offset="0%"/>
        <stop stop-opacity="1" stop-color="white" offset="100%"/>
      </linearGradient>
      <linearGradient x1="665" gradientUnits="userSpaceOnUse" x2="745" y1="420.9644" y2="460.9644" id="linearGradient30" spreadMethod="reflect">
        <stop stop-opacity="1" stop-color="white" offset="0%"/>
        <stop stop-opacity="1" stop-color="white" offset="100%"/>
      </linearGradient>
      <linearGradient x1="-55" gradientUnits="userSpaceOnUse" x2="25" y1="420.9644" y2="460.9644" id="linearGradient31" spreadMethod="reflect">
        <stop stop-opacity="1" stop-color="white" offset="0%"/>
        <stop stop-opacity="1" stop-color="white" offset="100%"/>
      </linearGradient>
      <linearGradient x1="25" gradientUnits="userSpaceOnUse" x2="105" y1="450.9644" y2="490.9644" id="linearGradient32" spreadMethod="reflect">
        <stop stop-opacity="1" stop-color="white" offset="0%"/>
        <stop stop-opacity="1" stop-color="white" offset="100%"/>
      </linearGradient>
      <linearGradient x1="285" gradientUnits="userSpaceOnUse" x2="375" y1="502.9644" y2="558.9644" id="linearGradient33" spreadMethod="reflect">
        <stop stop-opacity="1" stop-color="white" offset="0%"/>
        <stop stop-opacity="1" stop-color="white" offset="100%"/>
      </linearGradient>
      <clipPath clipPathUnits="userSpaceOnUse" id="clipPath1">
        <path d="M0 0 L1952 0 L1952 940 L0 940 L0 0 Z"/>
      </clipPath>
      <clipPath clipPathUnits="userSpaceOnUse" id="clipPath2">
        <path d="M-143 97 L833 97 L833 567 L-143 567 L-143 97 Z"/>
      </clipPath>
    </defs>
    <g fill="white" text-rendering="optimizeQuality" shape-rendering="geometricPrecision" transform="scale(2,2) translate(143,-97)" stroke="white">
      <rect x="-143" width="976" height="470" y="97" clip-path="url(#clipPath2)" stroke="none"/>
    </g>
    <g fill="url(#linearGradient1)" text-rendering="optimizeQuality" shape-rendering="geometricPrecision" transform="matrix(2,0,0,2,286,-194)" stroke="url(#linearGradient1)">
      <path d="M-130 160 L-50 160 L-50 200 L-130 200 Z" clip-path="url(#clipPath2)" stroke="none"/>
    </g>
    <g text-rendering="optimizeQuality" stroke-miterlimit="1.45" shape-rendering="geometricPrecision" transform="matrix(2,0,0,2,286,-194)" stroke-linecap="butt">
      <path fill="none" d="M-130 160 L-50 160 L-50 200 L-130 200 Z" clip-path="url(#clipPath2)"/>
      <text x="-119.2002" xml:space="preserve" y="184.1543" font-family="'DejaVu Sans'" clip-path="url(#clipPath2)" stroke="none">Categoria</text>
    </g>
    <g fill="url(#linearGradient2)" text-rendering="optimizeQuality" shape-rendering="geometricPrecision" transform="matrix(2,0,0,2,286,-194)" stroke="url(#linearGradient2)">
      <ellipse rx="40" ry="20" clip-path="url(#clipPath2)" cx="20" cy="180" stroke="none"/>
    </g>
    <g text-rendering="optimizeQuality" stroke-miterlimit="1.45" shape-rendering="geometricPrecision" transform="matrix(2,0,0,2,286,-194)" stroke-linecap="butt">
      <ellipse rx="40" fill="none" ry="20" clip-path="url(#clipPath2)" cx="20" cy="180"/>
      <text x="2.9902" xml:space="preserve" y="184.1543" font-family="'DejaVu Sans'" clip-path="url(#clipPath2)" stroke="none">nome</text>
    </g>
    <g fill="url(#linearGradient3)" text-rendering="optimizeQuality" shape-rendering="geometricPrecision" transform="matrix(2,0,0,2,286,-194)" stroke="url(#linearGradient3)">
      <ellipse rx="40" ry="20" clip-path="url(#clipPath2)" cx="-10" cy="130" stroke="none"/>
    </g>
    <g text-rendering="optimizeQuality" stroke-miterlimit="1.45" shape-rendering="geometricPrecision" transform="matrix(2,0,0,2,286,-194)" stroke-linecap="butt">
      <ellipse rx="40" fill="none" ry="20" clip-path="url(#clipPath2)" cx="-10" cy="130"/>
      <text x="-38.7051" xml:space="preserve" y="134.1543" font-family="'DejaVu Sans'" clip-path="url(#clipPath2)" stroke="none">descricao</text>
    </g>
    <g fill="url(#linearGradient4)" text-rendering="optimizeQuality" shape-rendering="geometricPrecision" transform="matrix(2,0,0,2,286,-194)" stroke="url(#linearGradient4)">
      <ellipse rx="40" ry="20" clip-path="url(#clipPath2)" cx="183.5938" cy="125" stroke="none"/>
    </g>
    <g text-rendering="optimizeQuality" stroke-miterlimit="1.45" shape-rendering="geometricPrecision" transform="matrix(2,0,0,2,286,-194)" stroke-linecap="butt">
      <ellipse rx="40" fill="none" ry="20" clip-path="url(#clipPath2)" cx="183.5938" cy="125"/>
      <text x="165.4941" xml:space="preserve" y="129.1543" font-family="'DejaVu Sans'" clip-path="url(#clipPath2)" stroke="none">senha</text>
    </g>
    <g fill="url(#linearGradient5)" text-rendering="optimizeQuality" shape-rendering="geometricPrecision" transform="matrix(2,0,0,2,286,-194)" stroke="url(#linearGradient5)">
      <ellipse rx="40" ry="20" clip-path="url(#clipPath2)" cx="498.5938" cy="125" stroke="none"/>
    </g>
    <g text-rendering="optimizeQuality" stroke-miterlimit="1.45" shape-rendering="geometricPrecision" transform="matrix(2,0,0,2,286,-194)" stroke-linecap="butt">
      <ellipse rx="40" fill="none" ry="20" clip-path="url(#clipPath2)" cx="498.5938" cy="125"/>
      <text x="473.3105" xml:space="preserve" y="129.1543" font-family="'DejaVu Sans'" clip-path="url(#clipPath2)" stroke="none">primeiro</text>
    </g>
    <g fill="url(#linearGradient6)" text-rendering="optimizeQuality" shape-rendering="geometricPrecision" transform="matrix(2,0,0,2,286,-194)" stroke="url(#linearGradient6)">
      <ellipse rx="40" ry="20" clip-path="url(#clipPath2)" cx="498.5938" cy="205" stroke="none"/>
    </g>
    <g text-rendering="optimizeQuality" stroke-miterlimit="1.45" shape-rendering="geometricPrecision" transform="matrix(2,0,0,2,286,-194)" stroke-linecap="butt">
      <ellipse rx="40" fill="none" ry="20" clip-path="url(#clipPath2)" cx="498.5938" cy="205"/>
      <text x="479.5889" xml:space="preserve" y="209.1543" font-family="'DejaVu Sans'" clip-path="url(#clipPath2)" stroke="none">ultimo</text>
    </g>
    <g fill="url(#linearGradient7)" text-rendering="optimizeQuality" shape-rendering="geometricPrecision" transform="matrix(2,0,0,2,286,-194)" stroke="url(#linearGradient7)">
      <ellipse rx="40" ry="20" clip-path="url(#clipPath2)" cx="418.5938" cy="165" stroke="none"/>
    </g>
    <g text-rendering="optimizeQuality" stroke-miterlimit="1.45" shape-rendering="geometricPrecision" transform="matrix(2,0,0,2,286,-194)" stroke-linecap="butt">
      <ellipse rx="40" fill="none" ry="20" clip-path="url(#clipPath2)" cx="418.5938" cy="165"/>
      <ellipse rx="37" fill="none" ry="17" clip-path="url(#clipPath2)" cx="418.5938" cy="165"/>
      <text x="401.584" xml:space="preserve" y="169.1543" font-family="'DejaVu Sans'" clip-path="url(#clipPath2)" stroke="none">nome</text>
    </g>
    <g fill="url(#linearGradient8)" text-rendering="optimizeQuality" shape-rendering="geometricPrecision" transform="matrix(2,0,0,2,286,-194)" stroke="url(#linearGradient8)">
      <path d="M238.5938 145 L348.5938 145 L348.5938 185 L238.5938 185 Z" clip-path="url(#clipPath2)" stroke="none"/>
    </g>
    <g text-rendering="optimizeQuality" stroke-miterlimit="1.45" shape-rendering="geometricPrecision" transform="matrix(2,0,0,2,286,-194)" stroke-linecap="butt">
      <path fill="none" d="M238.5938 145 L348.5938 145 L348.5938 185 L238.5938 185 Z" clip-path="url(#clipPath2)"/>
      <text x="251.1309" xml:space="preserve" y="169.1543" font-family="'DejaVu Sans'" clip-path="url(#clipPath2)" stroke="none">Administrador</text>
    </g>
    <g fill="url(#linearGradient9)" text-rendering="optimizeQuality" shape-rendering="geometricPrecision" transform="matrix(2,0,0,2,286,-194)" stroke="url(#linearGradient9)">
      <path d="M740 160 L820 160 L820 200 L740 200 Z" clip-path="url(#clipPath2)" stroke="none"/>
    </g>
    <g text-rendering="optimizeQuality" stroke-miterlimit="1.45" shape-rendering="geometricPrecision" transform="matrix(2,0,0,2,286,-194)" stroke-linecap="butt">
      <path fill="none" d="M740 160 L820 160 L820 200 L740 200 Z" clip-path="url(#clipPath2)"/>
      <text x="758.9004" xml:space="preserve" y="184.1543" font-family="'DejaVu Sans'" clip-path="url(#clipPath2)" stroke="none">Sessao</text>
    </g>
    <g fill="url(#linearGradient10)" text-rendering="optimizeQuality" shape-rendering="geometricPrecision" transform="matrix(2,0,0,2,286,-194)" stroke="url(#linearGradient10)">
      <ellipse rx="40" ry="20" clip-path="url(#clipPath2)" cx="670" cy="180" stroke="none"/>
    </g>
    <g text-rendering="optimizeQuality" stroke-miterlimit="1.45" shape-rendering="geometricPrecision" transform="matrix(2,0,0,2,286,-194)" stroke-linecap="butt">
      <ellipse rx="40" fill="none" ry="20" clip-path="url(#clipPath2)" cx="670" cy="180"/>
      <text x="645.8623" xml:space="preserve" y="184.1543" font-family="'DejaVu Sans'" clip-path="url(#clipPath2)" stroke="none">browser</text>
    </g>
    <g fill="url(#linearGradient11)" text-rendering="optimizeQuality" shape-rendering="geometricPrecision" transform="matrix(2,0,0,2,286,-194)" stroke="url(#linearGradient11)">
      <ellipse rx="40" ry="20" clip-path="url(#clipPath2)" cx="706.0377" cy="130" stroke="none"/>
    </g>
    <g text-rendering="optimizeQuality" stroke-miterlimit="1.45" shape-rendering="geometricPrecision" transform="matrix(2,0,0,2,286,-194)" stroke-linecap="butt">
      <ellipse rx="40" fill="none" ry="20" clip-path="url(#clipPath2)" cx="706.0377" cy="130"/>
      <text x="700.5621" xml:space="preserve" y="134.1543" font-family="'DejaVu Sans'" clip-path="url(#clipPath2)" stroke="none">ip</text>
    </g>
    <g fill="url(#linearGradient12)" text-rendering="optimizeQuality" shape-rendering="geometricPrecision" transform="matrix(2,0,0,2,286,-194)" stroke="url(#linearGradient12)">
      <ellipse rx="72.8125" ry="20" clip-path="url(#clipPath2)" cx="330" cy="255" stroke="none"/>
    </g>
    <g text-rendering="optimizeQuality" stroke-miterlimit="1.45" shape-rendering="geometricPrecision" transform="matrix(2,0,0,2,286,-194)" stroke-linecap="butt">
      <ellipse rx="72.8125" fill="none" ry="20" clip-path="url(#clipPath2)" cx="330" cy="255"/>
      <text x="271.7607" xml:space="preserve" y="259.1543" font-family="'DejaVu Sans'" clip-path="url(#clipPath2)" stroke="none">quantidadeestoque</text>
    </g>
    <g fill="url(#linearGradient13)" text-rendering="optimizeQuality" shape-rendering="geometricPrecision" transform="matrix(2,0,0,2,286,-194)" stroke="url(#linearGradient13)">
      <ellipse rx="40" ry="20" clip-path="url(#clipPath2)" cx="250" cy="295" stroke="none"/>
    </g>
    <g text-rendering="optimizeQuality" stroke-miterlimit="1.45" shape-rendering="geometricPrecision" transform="matrix(2,0,0,2,286,-194)" stroke-linecap="butt">
      <ellipse rx="40" fill="none" ry="20" clip-path="url(#clipPath2)" cx="250" cy="295"/>
      <text x="233.0635" xml:space="preserve" y="299.1543" font-family="'DejaVu Sans'" clip-path="url(#clipPath2)" stroke="none">preco</text>
    </g>
    <g fill="url(#linearGradient14)" text-rendering="optimizeQuality" shape-rendering="geometricPrecision" transform="matrix(2,0,0,2,286,-194)" stroke="url(#linearGradient14)">
      <ellipse rx="40" ry="20" clip-path="url(#clipPath2)" cx="403.3543" cy="295" stroke="none"/>
    </g>
    <g text-rendering="optimizeQuality" stroke-miterlimit="1.45" shape-rendering="geometricPrecision" transform="matrix(2,0,0,2,286,-194)" stroke-linecap="butt">
      <ellipse rx="40" fill="none" ry="20" clip-path="url(#clipPath2)" cx="403.3543" cy="295"/>
      <text x="374.6492" xml:space="preserve" y="299.1543" font-family="'DejaVu Sans'" clip-path="url(#clipPath2)" stroke="none">descricao</text>
    </g>
    <g fill="url(#linearGradient15)" text-rendering="optimizeQuality" shape-rendering="geometricPrecision" transform="matrix(2,0,0,2,286,-194)" stroke="url(#linearGradient15)">
      <ellipse rx="40" ry="20" clip-path="url(#clipPath2)" cx="250" cy="385" stroke="none"/>
    </g>
    <g text-rendering="optimizeQuality" stroke-miterlimit="1.45" shape-rendering="geometricPrecision" transform="matrix(2,0,0,2,286,-194)" stroke-linecap="butt">
      <ellipse rx="40" fill="none" ry="20" clip-path="url(#clipPath2)" cx="250" cy="385"/>
      <text x="232.9902" xml:space="preserve" y="389.1543" font-family="'DejaVu Sans'" clip-path="url(#clipPath2)" stroke="none">nome</text>
    </g>
    <g fill="url(#linearGradient16)" text-rendering="optimizeQuality" shape-rendering="geometricPrecision" transform="matrix(2,0,0,2,286,-194)" stroke="url(#linearGradient16)">
      <ellipse rx="40" ry="20" clip-path="url(#clipPath2)" cx="410" cy="385" stroke="none"/>
    </g>
    <g text-rendering="optimizeQuality" stroke-miterlimit="1.45" shape-rendering="geometricPrecision" transform="matrix(2,0,0,2,286,-194)" stroke-linecap="butt">
      <ellipse rx="40" fill="none" ry="20" clip-path="url(#clipPath2)" cx="410" cy="385"/>
      <text x="385.4668" xml:space="preserve" y="389.1543" font-family="'DejaVu Sans'" clip-path="url(#clipPath2)" stroke="none">imagem</text>
    </g>
    <g fill="url(#linearGradient17)" text-rendering="optimizeQuality" shape-rendering="geometricPrecision" transform="matrix(2,0,0,2,286,-194)" stroke="url(#linearGradient17)">
      <ellipse rx="40" ry="20" clip-path="url(#clipPath2)" cx="705" cy="300" stroke="none"/>
    </g>
    <g text-rendering="optimizeQuality" stroke-miterlimit="1.45" shape-rendering="geometricPrecision" transform="matrix(2,0,0,2,286,-194)" stroke-linecap="butt">
      <ellipse rx="40" fill="none" ry="20" clip-path="url(#clipPath2)" cx="705" cy="300"/>
      <text x="670.9043" xml:space="preserve" y="304.1543" font-family="'DejaVu Sans'" clip-path="url(#clipPath2)" stroke="none">quantidade</text>
    </g>
    <g fill="url(#linearGradient18)" text-rendering="optimizeQuality" shape-rendering="geometricPrecision" transform="matrix(2,0,0,2,286,-194)" stroke="url(#linearGradient18)">
      <path d="M290 320 L370 320 L370 360 L290 360 Z" clip-path="url(#clipPath2)" stroke="none"/>
    </g>
    <g text-rendering="optimizeQuality" stroke-miterlimit="1.45" shape-rendering="geometricPrecision" transform="matrix(2,0,0,2,286,-194)" stroke-linecap="butt">
      <path fill="none" d="M290 320 L370 320 L370 360 L290 360 Z" clip-path="url(#clipPath2)"/>
      <text x="306.6094" xml:space="preserve" y="344.1543" font-family="'DejaVu Sans'" clip-path="url(#clipPath2)" stroke="none">Produto</text>
    </g>
    <g fill="url(#linearGradient19)" text-rendering="optimizeQuality" shape-rendering="geometricPrecision" transform="matrix(2,0,0,2,286,-194)" stroke="url(#linearGradient19)">
      <path d="M-90 312 L-45 340 L-90 368 L-135 340 Z" clip-path="url(#clipPath2)" stroke="none"/>
    </g>
    <g text-rendering="optimizeQuality" stroke-miterlimit="1.45" shape-rendering="geometricPrecision" transform="matrix(2,0,0,2,286,-194)" stroke-linecap="butt">
      <path fill="none" d="M-90 312 L-45 340 L-90 368 L-135 340 Z" clip-path="url(#clipPath2)"/>
      <text x="-122.1973" xml:space="preserve" y="344.1543" font-family="'DejaVu Sans'" clip-path="url(#clipPath2)" stroke="none">Pertence a</text>
    </g>
    <g fill="url(#linearGradient20)" text-rendering="optimizeQuality" shape-rendering="geometricPrecision" transform="matrix(2,0,0,2,286,-194)" stroke="url(#linearGradient20)">
      <path d="M780 312 L825 340 L780 368 L735 340 Z" clip-path="url(#clipPath2)" stroke="none"/>
    </g>
    <g text-rendering="optimizeQuality" stroke-miterlimit="1.45" shape-rendering="geometricPrecision" transform="matrix(2,0,0,2,286,-194)" stroke-linecap="butt">
      <path fill="none" d="M780 312 L825 340 L780 368 L735 340 Z" clip-path="url(#clipPath2)"/>
      <text x="744.3604" xml:space="preserve" y="344.1543" font-family="'DejaVu Sans'" clip-path="url(#clipPath2)" stroke="none">Participa de</text>
    </g>
    <g fill="url(#linearGradient21)" text-rendering="optimizeQuality" shape-rendering="geometricPrecision" transform="matrix(2,0,0,2,286,-194)" stroke="url(#linearGradient21)">
      <ellipse rx="40" ry="20" clip-path="url(#clipPath2)" cx="183.5938" cy="205" stroke="none"/>
    </g>
    <g text-rendering="optimizeQuality" stroke-miterlimit="1.45" shape-rendering="geometricPrecision" transform="matrix(2,0,0,2,286,-194)" stroke-linecap="butt">
      <ellipse rx="40" fill="none" ry="20" clip-path="url(#clipPath2)" cx="183.5938" cy="205"/>
      <text x="165.1104" y="209.1543" clip-path="url(#clipPath2)" font-family="'DejaVu Sans'" stroke="none" font-weight="bold" xml:space="preserve">email</text>
      <line y2="211.9844" fill="none" x1="165.1104" clip-path="url(#clipPath2)" x2="202.0771" y1="211.9844"/>
    </g>
    <g fill="url(#linearGradient22)" text-rendering="optimizeQuality" shape-rendering="geometricPrecision" transform="matrix(2,0,0,2,286,-194)" stroke="url(#linearGradient22)">
      <ellipse rx="40" ry="20" clip-path="url(#clipPath2)" cx="-10" cy="229.3082" stroke="none"/>
    </g>
    <g text-rendering="optimizeQuality" stroke-miterlimit="1.45" shape-rendering="geometricPrecision" transform="matrix(2,0,0,2,286,-194)" stroke-linecap="butt">
      <ellipse rx="40" fill="none" ry="20" clip-path="url(#clipPath2)" cx="-10" cy="229.3082"/>
      <text x="-29.9424" y="233.4625" clip-path="url(#clipPath2)" font-family="'DejaVu Sans'" stroke="none" font-weight="bold" xml:space="preserve">grupo</text>
      <line y2="236.2926" fill="none" x1="-29.9424" clip-path="url(#clipPath2)" x2="9.9424" y1="236.2926"/>
    </g>
    <g fill="url(#linearGradient23)" text-rendering="optimizeQuality" shape-rendering="geometricPrecision" transform="matrix(2,0,0,2,286,-194)" stroke="url(#linearGradient23)">
      <ellipse rx="40" ry="20" clip-path="url(#clipPath2)" cx="706.0377" cy="229.3082" stroke="none"/>
    </g>
    <g text-rendering="optimizeQuality" stroke-miterlimit="1.45" shape-rendering="geometricPrecision" transform="matrix(2,0,0,2,286,-194)" stroke-linecap="butt">
      <ellipse rx="40" fill="none" ry="20" clip-path="url(#clipPath2)" cx="706.0377" cy="229.3082"/>
      <text x="686.1803" y="233.4625" clip-path="url(#clipPath2)" font-family="'DejaVu Sans'" stroke="none" font-weight="bold" xml:space="preserve">chave</text>
      <line y2="236.2926" fill="none" x1="686.1803" clip-path="url(#clipPath2)" x2="725.8952" y1="236.2926"/>
    </g>
    <g fill="url(#linearGradient24)" text-rendering="optimizeQuality" shape-rendering="geometricPrecision" transform="matrix(2,0,0,2,286,-194)" stroke="url(#linearGradient24)">
      <ellipse rx="40" ry="20" clip-path="url(#clipPath2)" cx="330" cy="410" stroke="none"/>
    </g>
    <g text-rendering="optimizeQuality" stroke-miterlimit="1.45" shape-rendering="geometricPrecision" transform="matrix(2,0,0,2,286,-194)" stroke-linecap="butt">
      <ellipse rx="40" fill="none" ry="20" clip-path="url(#clipPath2)" cx="330" cy="410"/>
      <text x="318.167" y="414.1543" clip-path="url(#clipPath2)" font-family="'DejaVu Sans'" stroke="none" font-weight="bold" xml:space="preserve">sku</text>
      <line y2="416.9844" fill="none" x1="318.167" clip-path="url(#clipPath2)" x2="341.833" y1="416.9844"/>
    </g>
    <g fill="url(#linearGradient25)" text-rendering="optimizeQuality" shape-rendering="geometricPrecision" transform="matrix(2,0,0,2,286,-194)" stroke="url(#linearGradient25)">
      <path d="M-55 510.9644 L25 510.9644 L25 550.9644 L-55 550.9644 Z" clip-path="url(#clipPath2)" stroke="none"/>
    </g>
    <g text-rendering="optimizeQuality" stroke-miterlimit="1.45" shape-rendering="geometricPrecision" transform="matrix(2,0,0,2,286,-194)" stroke-linecap="butt">
      <path fill="none" d="M-55 510.9644 L25 510.9644 L25 550.9644 L-55 550.9644 Z" clip-path="url(#clipPath2)"/>
      <text x="-46.0605" xml:space="preserve" y="535.1187" font-family="'DejaVu Sans'" clip-path="url(#clipPath2)" stroke="none">Transacao</text>
    </g>
    <g fill="url(#linearGradient26)" text-rendering="optimizeQuality" shape-rendering="geometricPrecision" transform="matrix(2,0,0,2,286,-194)" stroke="url(#linearGradient26)">
      <path d="M665 510.9644 L745 510.9644 L745 550.9644 L665 550.9644 Z" clip-path="url(#clipPath2)" stroke="none"/>
    </g>
    <g text-rendering="optimizeQuality" stroke-miterlimit="1.45" shape-rendering="geometricPrecision" transform="matrix(2,0,0,2,286,-194)" stroke-linecap="butt">
      <path fill="none" d="M665 510.9644 L745 510.9644 L745 550.9644 L665 550.9644 Z" clip-path="url(#clipPath2)"/>
      <text x="685.8809" xml:space="preserve" y="535.1187" font-family="'DejaVu Sans'" clip-path="url(#clipPath2)" stroke="none">Status</text>
    </g>
    <g fill="url(#linearGradient27)" text-rendering="optimizeQuality" shape-rendering="geometricPrecision" transform="matrix(2,0,0,2,286,-194)" stroke="url(#linearGradient27)">
      <ellipse rx="40" ry="20" clip-path="url(#clipPath2)" cx="-95" cy="470.9644" stroke="none"/>
    </g>
    <g text-rendering="optimizeQuality" stroke-miterlimit="1.45" shape-rendering="geometricPrecision" transform="matrix(2,0,0,2,286,-194)" stroke-linecap="butt">
      <ellipse rx="40" fill="none" ry="20" clip-path="url(#clipPath2)" cx="-95" cy="470.9644"/>
      <text x="-101.3516" y="475.1187" clip-path="url(#clipPath2)" font-family="'DejaVu Sans'" stroke="none" font-weight="bold" xml:space="preserve">id</text>
      <line y2="477.9487" fill="none" x1="-101.3516" clip-path="url(#clipPath2)" x2="-88.6484" y1="477.9487"/>
    </g>
    <g fill="url(#linearGradient28)" text-rendering="optimizeQuality" shape-rendering="geometricPrecision" transform="matrix(2,0,0,2,286,-194)" stroke="url(#linearGradient28)">
      <ellipse rx="40" ry="20" clip-path="url(#clipPath2)" cx="785" cy="470.9644" stroke="none"/>
    </g>
    <g text-rendering="optimizeQuality" stroke-miterlimit="1.45" shape-rendering="geometricPrecision" transform="matrix(2,0,0,2,286,-194)" stroke-linecap="butt">
      <ellipse rx="40" fill="none" ry="20" clip-path="url(#clipPath2)" cx="785" cy="470.9644"/>
      <text x="762.5527" y="475.1187" clip-path="url(#clipPath2)" font-family="'DejaVu Sans'" stroke="none" font-weight="bold" xml:space="preserve">codigo</text>
      <line y2="477.9487" fill="none" x1="762.5527" clip-path="url(#clipPath2)" x2="807.4473" y1="477.9487"/>
    </g>
    <g fill="url(#linearGradient29)" text-rendering="optimizeQuality" shape-rendering="geometricPrecision" transform="matrix(2,0,0,2,286,-194)" stroke="url(#linearGradient29)">
      <ellipse rx="40" ry="20" clip-path="url(#clipPath2)" cx="625" cy="470.9644" stroke="none"/>
    </g>
    <g text-rendering="optimizeQuality" stroke-miterlimit="1.45" shape-rendering="geometricPrecision" transform="matrix(2,0,0,2,286,-194)" stroke-linecap="butt">
      <ellipse rx="40" fill="none" ry="20" clip-path="url(#clipPath2)" cx="625" cy="470.9644"/>
      <text x="607.9902" xml:space="preserve" y="475.1187" font-family="'DejaVu Sans'" clip-path="url(#clipPath2)" stroke="none">nome</text>
    </g>
    <g fill="url(#linearGradient30)" text-rendering="optimizeQuality" shape-rendering="geometricPrecision" transform="matrix(2,0,0,2,286,-194)" stroke="url(#linearGradient30)">
      <ellipse rx="40" ry="20" clip-path="url(#clipPath2)" cx="705" cy="440.9644" stroke="none"/>
    </g>
    <g text-rendering="optimizeQuality" stroke-miterlimit="1.45" shape-rendering="geometricPrecision" transform="matrix(2,0,0,2,286,-194)" stroke-linecap="butt">
      <ellipse rx="40" fill="none" ry="20" clip-path="url(#clipPath2)" cx="705" cy="440.9644"/>
      <text x="676.2949" xml:space="preserve" y="445.1187" font-family="'DejaVu Sans'" clip-path="url(#clipPath2)" stroke="none">descricao</text>
    </g>
    <g fill="url(#linearGradient31)" text-rendering="optimizeQuality" shape-rendering="geometricPrecision" transform="matrix(2,0,0,2,286,-194)" stroke="url(#linearGradient31)">
      <ellipse rx="40" ry="20" clip-path="url(#clipPath2)" cx="-15" cy="440.9644" stroke="none"/>
    </g>
    <g text-rendering="optimizeQuality" stroke-miterlimit="1.45" shape-rendering="geometricPrecision" transform="matrix(2,0,0,2,286,-194)" stroke-linecap="butt">
      <ellipse rx="40" fill="none" ry="20" clip-path="url(#clipPath2)" cx="-15" cy="440.9644"/>
      <text x="-43.7021" xml:space="preserve" y="445.1187" font-family="'DejaVu Sans'" clip-path="url(#clipPath2)" stroke="none">idexterno</text>
    </g>
    <g fill="url(#linearGradient32)" text-rendering="optimizeQuality" shape-rendering="geometricPrecision" transform="matrix(2,0,0,2,286,-194)" stroke="url(#linearGradient32)">
      <ellipse rx="40" ry="20" clip-path="url(#clipPath2)" cx="65" cy="470.9644" stroke="none"/>
    </g>
    <g text-rendering="optimizeQuality" stroke-miterlimit="1.45" shape-rendering="geometricPrecision" transform="matrix(2,0,0,2,286,-194)" stroke-linecap="butt">
      <ellipse rx="40" fill="none" ry="20" clip-path="url(#clipPath2)" cx="65" cy="470.9644"/>
      <text x="49.9678" xml:space="preserve" y="475.1187" font-family="'DejaVu Sans'" clip-path="url(#clipPath2)" stroke="none">valor</text>
    </g>
    <g fill="url(#linearGradient33)" text-rendering="optimizeQuality" shape-rendering="geometricPrecision" transform="matrix(2,0,0,2,286,-194)" stroke="url(#linearGradient33)">
      <path d="M330 502.9644 L375 530.9644 L330 558.9644 L285 530.9644 Z" clip-path="url(#clipPath2)" stroke="none"/>
    </g>
    <g text-rendering="optimizeQuality" stroke-miterlimit="1.45" shape-rendering="geometricPrecision" transform="matrix(2,0,0,2,286,-194)" stroke-linecap="butt">
      <path fill="none" d="M330 502.9644 L375 530.9644 L330 558.9644 L285 530.9644 Z" clip-path="url(#clipPath2)"/>
      <text x="310.9893" xml:space="preserve" y="535.1187" font-family="'DejaVu Sans'" clip-path="url(#clipPath2)" stroke="none">Possui</text>
    </g>
    <g text-rendering="optimizeQuality" stroke-miterlimit="1.45" shape-rendering="geometricPrecision" transform="matrix(2,0,0,2,286,-194)" stroke-linecap="butt">
      <path fill="none" d="M-50.0122 180 L-20.0314 180" clip-path="url(#clipPath2)"/>
    </g>
    <g text-rendering="optimizeQuality" stroke-miterlimit="1.45" shape-rendering="geometricPrecision" transform="matrix(2,0,0,2,286,-194)" stroke-linecap="butt">
      <path fill="none" d="M-58.0078 160.0049 L-34.965 145.6031" clip-path="url(#clipPath2)"/>
      <path fill="none" d="M446.9141 150.8398 L470.3062 139.1438" clip-path="url(#clipPath2)"/>
      <path fill="none" d="M446.9141 179.1602 L470.3062 190.8562" clip-path="url(#clipPath2)"/>
      <path fill="none" d="M238.5669 144.9902 L215.9388 136.7618" clip-path="url(#clipPath2)"/>
      <path fill="none" d="M348.6169 165 L378.5826 165" clip-path="url(#clipPath2)"/>
      <path fill="none" d="M740.0122 180 L710.0314 180" clip-path="url(#clipPath2)"/>
      <path fill="none" d="M750.4223 160.0049 L729.8121 146.0719" clip-path="url(#clipPath2)"/>
      <path fill="none" d="M330 320.0366 L330 274.9746" clip-path="url(#clipPath2)"/>
      <path fill="none" d="M362.6298 319.9829 L378.1003 310.4923" clip-path="url(#clipPath2)"/>
      <path fill="none" d="M294.4141 319.9829 L276.5877 309.9556" clip-path="url(#clipPath2)"/>
      <path fill="none" d="M294.4141 360.0171 L276.5877 370.0444" clip-path="url(#clipPath2)"/>
      <path fill="none" d="M365.5859 360.0171 L383.4123 370.0444" clip-path="url(#clipPath2)"/>
      <path fill="none" d="M-90 199.9609 L-90 311.999" clip-path="url(#clipPath2)"/>
      <text x="-123.8174" xml:space="preserve" y="260.1543" font-family="sans-serif" clip-path="url(#clipPath2)" stroke="none">1</text>
      <path fill="none" d="M289.9841 337 L-49.7844 337" clip-path="url(#clipPath2)"/>
      <text x="118.0117" xml:space="preserve" y="371.1543" font-family="sans-serif" clip-path="url(#clipPath2)" stroke="none">N</text>
      <path fill="none" d="M-49.8303 343 L289.9861 343" clip-path="url(#clipPath2)"/>
      <path fill="none" d="M370.0177 340 L734.983 340" clip-path="url(#clipPath2)"/>
      <text x="548.0117" xml:space="preserve" y="374.1543" font-family="sans-serif" clip-path="url(#clipPath2)" stroke="none">N</text>
      <path fill="none" d="M777 199.9609 L777 313.8452" clip-path="url(#clipPath2)"/>
      <path fill="none" d="M755.7935 327.0898 L732.356 314.5899" clip-path="url(#clipPath2)"/>
      <path fill="none" d="M783 313.8672 L783 199.969" clip-path="url(#clipPath2)"/>
      <text x="807.8232" xml:space="preserve" y="260.1543" font-family="sans-serif" clip-path="url(#clipPath2)" stroke="none">M</text>
      <path fill="none" d="M215.9546 193.2324 L238.5867 185.0026" clip-path="url(#clipPath2)"/>
      <path fill="none" d="M-35.1953 213.779 L-57.54 200.0068" clip-path="url(#clipPath2)"/>
      <path fill="none" d="M730.0538 213.2975 L749.9786 200.0143" clip-path="url(#clipPath2)"/>
      <path fill="none" d="M330 359.9951 L330 390.0273" clip-path="url(#clipPath2)"/>
      <path fill="none" d="M-41.6797 510.9546 L-72.7919 487.6205" clip-path="url(#clipPath2)"/>
      <path fill="none" d="M731.6797 510.9546 L762.7919 487.6205" clip-path="url(#clipPath2)"/>
      <path fill="none" d="M678.3203 510.9546 L647.2081 487.6205" clip-path="url(#clipPath2)"/>
      <path fill="none" d="M705 510.9692 L705 460.9609" clip-path="url(#clipPath2)"/>
      <path fill="none" d="M-15 510.9692 L-15 460.9609" clip-path="url(#clipPath2)"/>
      <path fill="none" d="M11.6797 510.9546 L42.7919 487.6205" clip-path="url(#clipPath2)"/>
      <path fill="none" d="M24.9664 533.9644 L289.8228 533.9644" clip-path="url(#clipPath2)"/>
      <text x="150.5117" xml:space="preserve" y="508.1187" font-family="sans-serif" clip-path="url(#clipPath2)" stroke="none">N</text>
      <path fill="none" d="M24.9664 527.9644 L289.8228 527.9644" clip-path="url(#clipPath2)"/>
      <path fill="none" d="M374.9982 530.9644 L664.9985 530.9644" clip-path="url(#clipPath2)"/>
      <text x="516.1826" xml:space="preserve" y="505.1187" font-family="sans-serif" clip-path="url(#clipPath2)" stroke="none">1</text>
    </g>
  </g>
</svg>
